<svg width="36" height="21" viewBox="0 0 36 21" fill="none" xmlns="http://www.w3.org/2000/svg">
<path d="M23.4971 0.462242C23.1788 0.758305 23 1.1598 23 1.57843C23 1.99707 23.1788 2.39856 23.4971 2.69462L31.9017 10.5095L23.4971 18.3244C23.1878 18.6222 23.0167 19.021 23.0206 19.4349C23.0244 19.8489 23.203 20.2449 23.5178 20.5376C23.8326 20.8303 24.2585 20.9963 24.7036 20.9999C25.1488 21.0035 25.5777 20.8444 25.8979 20.5568L35.5029 11.6257C35.8212 11.3297 36 10.9282 36 10.5095C36 10.0909 35.8212 9.6894 35.5029 9.39334L25.8979 0.462242C25.5795 0.166269 25.1477 0 24.6975 0C24.2473 0 23.8155 0.166269 23.4971 0.462242V0.462242Z" fill="#01DBF8"/>
<path d="M11.4589 0.462242C11.1651 0.758305 11 1.1598 11 1.57843C11 1.99707 11.1651 2.39856 11.4589 2.69462L19.2169 10.5095L11.4589 18.3244C11.1734 18.6222 11.0154 19.021 11.019 19.4349C11.0226 19.8489 11.1874 20.2449 11.478 20.5376C11.7686 20.8303 12.1617 20.9963 12.5726 20.9999C12.9835 21.0035 13.3794 20.8444 13.675 20.5568L22.5411 11.6257C22.8349 11.3297 23 10.9282 23 10.5095C23 10.0909 22.8349 9.6894 22.5411 9.39334L13.675 0.462242C13.3811 0.166269 12.9825 0 12.5669 0C12.1514 0 11.7528 0.166269 11.4589 0.462242V0.462242Z" fill="#01DBF8" fill-opacity="0.5"/>
<path d="M0.497119 0.462242C0.178814 0.758305 0 1.1598 0 1.57843C0 1.99707 0.178814 2.39856 0.497119 2.69462L8.90166 10.5095L0.497119 18.3244C0.187835 18.6222 0.0166966 19.021 0.0205651 19.4349C0.0244336 19.8489 0.202999 20.2449 0.517801 20.5376C0.832603 20.8303 1.25845 20.9963 1.70364 20.9999C2.14882 21.0035 2.57771 20.8444 2.89793 20.5568L12.5029 11.6257C12.8212 11.3297 13 10.9282 13 10.5095C13 10.0909 12.8212 9.6894 12.5029 9.39334L2.89793 0.462242C2.57953 0.166269 2.14774 0 1.69752 0C1.24731 0 0.81552 0.166269 0.497119 0.462242V0.462242Z" fill="#01DBF8" fill-opacity="0.25"/>
</svg>
