<svg width="36" height="21" viewBox="0 0 36 21" fill="none" xmlns="http://www.w3.org/2000/svg">
<path d="M11.5411 0.462242C11.8349 0.758305 12 1.1598 12 1.57843C12 1.99707 11.8349 2.39856 11.5411 2.69462L3.78308 10.5095L11.5411 18.3244C11.8266 18.6222 11.9846 19.021 11.981 19.4349C11.9774 19.8489 11.8126 20.2449 11.522 20.5376C11.2314 20.8303 10.8383 20.9963 10.4274 20.9999C10.0165 21.0035 9.62058 20.8444 9.32499 20.5568L0.458878 11.6257C0.165059 11.3297 0 10.9282 0 10.5095C0 10.0909 0.165059 9.6894 0.458878 9.39334L9.32499 0.462242C9.6189 0.166269 10.0175 0 10.4331 0C10.8486 0 11.2472 0.166269 11.5411 0.462242V0.462242Z" fill="#01DBF8"/>
<path d="M23.5411 0.462242C23.8349 0.758305 24 1.1598 24 1.57843C24 1.99707 23.8349 2.39856 23.5411 2.69462L15.7831 10.5095L23.5411 18.3244C23.8266 18.6222 23.9846 19.021 23.981 19.4349C23.9774 19.8489 23.8126 20.2449 23.522 20.5376C23.2314 20.8303 22.8383 20.9963 22.4274 20.9999C22.0165 21.0035 21.6206 20.8444 21.325 20.5568L12.4589 11.6257C12.1651 11.3297 12 10.9282 12 10.5095C12 10.0909 12.1651 9.6894 12.4589 9.39334L21.325 0.462242C21.6189 0.166269 22.0175 0 22.4331 0C22.8486 0 23.2472 0.166269 23.5411 0.462242V0.462242Z" fill="#01DBF8" fill-opacity="0.5"/>
<path d="M35.5411 0.462242C35.8349 0.758305 36 1.1598 36 1.57843C36 1.99707 35.8349 2.39856 35.5411 2.69462L27.7831 10.5095L35.5411 18.3244C35.8266 18.6222 35.9846 19.021 35.981 19.4349C35.9774 19.8489 35.8126 20.2449 35.522 20.5376C35.2314 20.8303 34.8383 20.9963 34.4274 20.9999C34.0165 21.0035 33.6206 20.8444 33.325 20.5568L24.4589 11.6257C24.1651 11.3297 24 10.9282 24 10.5095C24 10.0909 24.1651 9.6894 24.4589 9.39334L33.325 0.462242C33.6189 0.166269 34.0175 0 34.4331 0C34.8486 0 35.2472 0.166269 35.5411 0.462242V0.462242Z" fill="#01DBF8" fill-opacity="0.25"/>
</svg>
