<svg width="26" height="25" viewBox="0 0 26 25" fill="none" xmlns="http://www.w3.org/2000/svg">
<path fill-rule="evenodd" clip-rule="evenodd" d="M13 25C20.0911 25 26 19.4902 26 12.5C26 5.50977 20.0911 0 13 0C5.90906 0 0 5.50977 0 12.5C0 19.4902 5.90906 25 13 25ZM24 12.5C24 18.299 19.0751 23 13 23C6.92493 23 2 18.299 2 12.5C2 6.70105 6.92493 2 13 2C19.0751 2 24 6.70105 24 12.5ZM5.27502 13.2885L11.875 19.8884C12.075 20.0885 12.3167 20.1885 12.6 20.1885C12.8833 20.1885 13.1167 20.0885 13.3 19.8884C13.5 19.7051 13.5959 19.4718 13.588 19.1885C13.5793 18.9052 13.4833 18.6718 13.3 18.4884L8.40002 13.5885H19.575C19.8583 13.5885 20.0959 13.4924 20.288 13.3004C20.4794 13.1091 20.575 12.8718 20.575 12.5885C20.575 12.4365 20.5475 12.2976 20.4924 12.1719C20.4448 12.0632 20.3767 11.9645 20.288 11.8755C20.0959 11.6841 19.8583 11.5885 19.575 11.5885H8.40002L13.3 6.68848C13.5 6.4884 13.5959 6.25085 13.588 5.97546C13.5793 5.70081 13.475 5.4718 13.275 5.28845C13.075 5.0885 12.8373 4.99243 12.562 5.00049C12.2874 5.00916 12.0583 5.1051 11.875 5.28845L5.27502 11.8884C5.17505 11.9884 5.104 12.0968 5.06201 12.2135C5.03955 12.2769 5.02319 12.3427 5.01294 12.411C5.00427 12.4684 5 12.5276 5 12.5885C5 12.7218 5.02063 12.8468 5.06201 12.9635C5.104 13.0801 5.17505 13.1885 5.27502 13.2885Z" fill="#01DBF8"/>
</svg>
