<svg width="24" height="24" viewBox="0 0 24 24" fill="none" xmlns="http://www.w3.org/2000/svg">
<path d="M9 17H13C13.2833 17 13.521 16.904 13.713 16.712C13.9043 16.5207 14 16.2833 14 16V15L15.275 15.675C15.4417 15.7583 15.604 15.75 15.762 15.65C15.9207 15.55 16 15.4083 16 15.225V12.775C16 12.5917 15.9207 12.45 15.762 12.35C15.604 12.25 15.4417 12.2417 15.275 12.325L14 13V12C14 11.7167 13.9043 11.479 13.713 11.287C13.521 11.0957 13.2833 11 13 11H9C8.71667 11 8.47933 11.0957 8.288 11.287C8.096 11.479 8 11.7167 8 12V16C8 16.2833 8.096 16.5207 8.288 16.712C8.47933 16.904 8.71667 17 9 17ZM4 19V10C4 9.68333 4.071 9.38333 4.213 9.1C4.35433 8.81667 4.55 8.58333 4.8 8.4L10.8 3.9C11.15 3.63333 11.55 3.5 12 3.5C12.45 3.5 12.85 3.63333 13.2 3.9L19.2 8.4C19.45 8.58333 19.646 8.81667 19.788 9.1C19.9293 9.38333 20 9.68333 20 10V19C20 19.55 19.8043 20.021 19.413 20.413C19.021 20.8043 18.55 21 18 21H6C5.45 21 4.97933 20.8043 4.588 20.413C4.196 20.021 4 19.55 4 19ZM6 19H18V10L12 5.5L6 10V19Z" fill="black"/>
</svg>
