<svg width="33" height="33" viewBox="0 0 33 33" fill="none" xmlns="http://www.w3.org/2000/svg">
<path d="M16.5004 9.80457C15.6212 9.80457 14.7505 9.97774 13.9382 10.3142C13.1259 10.6507 12.3878 11.1439 11.7661 11.7656C11.1444 12.3873 10.6512 13.1254 10.3148 13.9377C9.97829 14.75 9.80511 15.6206 9.80511 16.4999C9.80511 17.3791 9.97829 18.2497 10.3148 19.062C10.6512 19.8743 11.1444 20.6124 11.7661 21.2341C12.3878 21.8559 13.1259 22.349 13.9382 22.6855C14.7505 23.022 15.6212 23.1952 16.5004 23.1952C18.2761 23.1952 19.9791 22.4898 21.2347 21.2341C22.4903 19.9785 23.1957 18.2756 23.1957 16.4999C23.1957 14.7242 22.4903 13.0212 21.2347 11.7656C19.9791 10.51 18.2761 9.80457 16.5004 9.80457V9.80457ZM11.8677 16.4999C11.8677 15.2712 12.3558 14.0929 13.2246 13.2241C14.0934 12.3553 15.2717 11.8672 16.5004 11.8672C17.7291 11.8672 18.9074 12.3553 19.7762 13.2241C20.645 14.0929 21.1331 15.2712 21.1331 16.4999C21.1331 17.7285 20.645 18.9069 19.7762 19.7756C18.9074 20.6444 17.7291 21.1325 16.5004 21.1325C15.2717 21.1325 14.0934 20.6444 13.2246 19.7756C12.3558 18.9069 11.8677 17.7285 11.8677 16.4999Z" fill="#01DBF8"/>
<path d="M20.2045 2.76908C19.1175 -0.923026 13.8825 -0.923026 12.7955 2.76908L12.6016 3.42706C12.5257 3.68479 12.3931 3.92226 12.2135 4.12208C12.0339 4.32189 11.8118 4.47898 11.5636 4.58183C11.3154 4.68467 11.0473 4.73067 10.779 4.71644C10.5107 4.70222 10.249 4.62814 10.013 4.49963L9.41074 4.1696C6.02803 2.32974 2.32974 6.0301 4.17167 9.41074L4.49963 10.013C4.62814 10.249 4.70222 10.5107 4.71644 10.779C4.73067 11.0473 4.68467 11.3154 4.58183 11.5636C4.47898 11.8118 4.32189 12.0339 4.12208 12.2135C3.92226 12.3931 3.68479 12.5257 3.42706 12.6016L2.76908 12.7955C-0.923026 13.8825 -0.923026 19.1175 2.76908 20.2045L3.42706 20.3984C3.68479 20.4743 3.92226 20.6069 4.12208 20.7865C4.32189 20.9661 4.47898 21.1882 4.58183 21.4364C4.68467 21.6846 4.73067 21.9527 4.71644 22.221C4.70222 22.4893 4.62814 22.751 4.49963 22.987L4.1696 23.5893C2.32974 26.972 6.02803 30.6723 9.41074 28.8283L10.013 28.5004C10.249 28.3719 10.5107 28.2978 10.779 28.2836C11.0473 28.2693 11.3154 28.3153 11.5636 28.4182C11.8118 28.521 12.0339 28.6781 12.2135 28.8779C12.3931 29.0777 12.5257 29.3152 12.6016 29.5729L12.7955 30.2309C13.8825 33.923 19.1175 33.923 20.2045 30.2309L20.3984 29.5729C20.4743 29.3152 20.6069 29.0777 20.7865 28.8779C20.9661 28.6781 21.1882 28.521 21.4364 28.4182C21.6846 28.3153 21.9527 28.2693 22.221 28.2836C22.4893 28.2978 22.751 28.3719 22.987 28.5004L23.5893 28.8304C26.972 30.6723 30.6723 26.9699 28.8283 23.5893L28.5004 22.987C28.3719 22.751 28.2978 22.4893 28.2836 22.221C28.2693 21.9527 28.3153 21.6846 28.4182 21.4364C28.521 21.1882 28.6781 20.9661 28.8779 20.7865C29.0777 20.6069 29.3152 20.4743 29.5729 20.3984L30.2309 20.2045C33.923 19.1175 33.923 13.8825 30.2309 12.7955L29.5729 12.6016C29.3152 12.5257 29.0777 12.3931 28.8779 12.2135C28.6781 12.0339 28.521 11.8118 28.4182 11.5636C28.3153 11.3154 28.2693 11.0473 28.2836 10.779C28.2978 10.5107 28.3719 10.249 28.5004 10.013L28.8304 9.41074C30.6723 6.02803 26.9699 2.32974 23.5893 4.17167L22.987 4.49963C22.751 4.62814 22.4893 4.70222 22.221 4.71644C21.9527 4.73067 21.6846 4.68467 21.4364 4.58183C21.1882 4.47898 20.9661 4.32189 20.7865 4.12208C20.6069 3.92226 20.4743 3.68479 20.3984 3.42706L20.2045 2.76908V2.76908ZM14.7736 3.3528C15.281 1.63051 17.719 1.63051 18.2264 3.3528L18.4203 4.01078C18.5833 4.56374 18.868 5.07322 19.2535 5.50186C19.6389 5.93049 20.1155 6.26743 20.6481 6.48796C21.1807 6.70849 21.756 6.80702 22.3316 6.77633C22.9073 6.74565 23.4688 6.58652 23.975 6.31061L24.5752 5.98059C26.151 5.1246 27.8754 6.8469 27.0173 8.42481L26.6894 9.0271C26.4139 9.53332 26.2552 10.0948 26.2248 10.6703C26.1945 11.2458 26.2932 11.8209 26.514 12.3533C26.7347 12.8857 27.0717 13.3619 27.5004 13.7472C27.929 14.1324 28.4384 14.4169 28.9913 14.5797L29.6472 14.7736C31.3695 15.281 31.3695 17.719 29.6472 18.2264L28.9892 18.4203C28.4363 18.5833 27.9268 18.868 27.4981 19.2535C27.0695 19.6389 26.7326 20.1155 26.512 20.6481C26.2915 21.1807 26.193 21.756 26.2237 22.3316C26.2544 22.9073 26.4135 23.4688 26.6894 23.975L27.0194 24.5752C27.8754 26.151 26.1531 27.8754 24.5752 27.0173L23.975 26.6894C23.4687 26.4135 22.907 26.2545 22.3312 26.2239C21.7555 26.1933 21.1802 26.2921 20.6475 26.5128C20.1148 26.7335 19.6383 27.0707 19.253 27.4996C18.8676 27.9284 18.5831 28.4381 18.4203 28.9913L18.2264 29.6472C17.719 31.3695 15.281 31.3695 14.7736 29.6472L14.5797 28.9892C14.4166 28.4365 14.132 27.9274 13.7467 27.4989C13.3613 27.0705 12.885 26.7337 12.3527 26.5132C11.8203 26.2927 11.2453 26.1941 10.6699 26.2246C10.0945 26.2551 9.53318 26.4139 9.0271 26.6894L8.42481 27.0194C6.84896 27.8754 5.1246 26.1531 5.98265 24.5752L6.31061 23.975C6.58691 23.4687 6.74635 22.907 6.77723 22.3311C6.80812 21.7552 6.70968 21.1797 6.48912 20.6468C6.26856 20.1139 5.93149 19.6371 5.50264 19.2515C5.07378 18.8659 4.56403 18.5812 4.01078 18.4182L3.3528 18.2244C1.63051 17.717 1.63051 15.2789 3.3528 14.7715L4.01078 14.5776C4.56317 14.4145 5.07209 14.1299 5.50029 13.7447C5.9285 13.3595 6.26516 12.8834 6.48563 12.3513C6.70611 11.8192 6.80481 11.2446 6.77453 10.6694C6.74425 10.0942 6.58574 9.5331 6.31061 9.0271L5.98059 8.42481C5.1246 6.84896 6.8469 5.1246 8.42481 5.98265L9.0271 6.31061C9.53318 6.58613 10.0945 6.74495 10.6699 6.77543C11.2453 6.80592 11.8203 6.7073 12.3527 6.4868C12.885 6.26629 13.3613 5.9295 13.7467 5.50107C14.132 5.07265 14.4166 4.56345 14.5797 4.01078L14.7736 3.3528V3.3528Z" fill="#01DBF8"/>
</svg>
