<svg width="24" height="24" viewBox="0 0 24 24" fill="none" xmlns="http://www.w3.org/2000/svg">
<path d="M11 21L7.825 18.15C6.625 17.0667 5.596 16.1 4.738 15.25C3.87933 14.4 3.171 13.6 2.613 12.85C2.05433 12.1 1.646 11.375 1.388 10.675C1.12933 9.975 1 9.24167 1 8.475C1 6.90833 1.525 5.604 2.575 4.562C3.625 3.52067 4.93333 3 6.5 3C7.36667 3 8.19167 3.18333 8.975 3.55C9.75833 3.91667 10.4333 4.43333 11 5.1C11.5667 4.43333 12.2417 3.91667 13.025 3.55C13.8083 3.18333 14.6333 3 15.5 3C16.85 3 17.9833 3.379 18.9 4.137C19.8167 4.89567 20.4417 5.85 20.775 7H18.65C18.35 6.33333 17.9083 5.83333 17.325 5.5C16.7417 5.16667 16.1333 5 15.5 5C14.65 5 13.9167 5.22933 13.3 5.688C12.6833 6.146 12.1083 6.75 11.575 7.5H10.425C9.90833 6.75 9.321 6.146 8.663 5.688C8.00433 5.22933 7.28333 5 6.5 5C5.55 5 4.729 5.329 4.037 5.987C3.34567 6.64567 3 7.475 3 8.475C3 9.025 3.11667 9.58333 3.35 10.15C3.58333 10.7167 4 11.371 4.6 12.113C5.2 12.8543 6.01667 13.7207 7.05 14.712C8.08333 15.704 9.4 16.9 11 18.3C11.4333 17.9167 11.9417 17.475 12.525 16.975C13.1083 16.475 13.575 16.0583 13.925 15.725L14.15 15.95L14.637 16.438L15.125 16.925L15.35 17.15C14.9833 17.4833 14.5167 17.8957 13.95 18.387C13.3833 18.879 12.8833 19.3167 12.45 19.7L11 21ZM18 17V14H15V12H18V9H20V12H23V14H20V17H18Z" fill="black"/>
</svg>
