<svg width="24" height="24" viewBox="0 0 24 24" fill="none" xmlns="http://www.w3.org/2000/svg">
<path d="M11 20H5.99995C5.71662 20 5.47895 19.904 5.28695 19.712C5.09562 19.5206 4.99995 19.2833 4.99995 19V12H3.29995C3.06662 12 2.90828 11.8916 2.82495 11.675C2.74162 11.4583 2.79162 11.275 2.97495 11.125L11.325 3.59995C11.5083 3.41662 11.7333 3.32495 12 3.32495C12.2666 3.32495 12.4916 3.41662 12.675 3.59995L16 6.59995V4.99995C16 4.71662 16.096 4.47895 16.288 4.28695C16.4793 4.09562 16.7166 3.99995 17 3.99995H18C18.2833 3.99995 18.5206 4.09562 18.712 4.28695C18.904 4.47895 19 4.71662 19 4.99995V9.29995L21.025 11.125C21.2083 11.275 21.2583 11.4583 21.1749 11.675C21.0916 11.8916 20.9333 12 20.7 12H19V19C19 19.2833 18.904 19.5206 18.712 19.712C18.5206 19.904 18.2833 20 18 20H13V14H11V20ZM6.99995 18H8.99995V13C8.99995 12.7166 9.09595 12.479 9.28795 12.287C9.47928 12.0956 9.71662 12 9.99995 12H14C14.2833 12 14.521 12.0956 14.713 12.287C14.9043 12.479 15 12.7166 15 13V18H17V10.2L12 5.69995L6.99995 10.2V18ZM9.99995 10.025H14C14 9.49162 13.8 9.05395 13.4 8.71195C13 8.37062 12.5333 8.19995 12 8.19995C11.4666 8.19995 11 8.37062 10.6 8.71195C10.2 9.05395 9.99995 9.49162 9.99995 10.025ZM9.99995 12H14H9.99995Z" fill="black"/>
</svg>
