<svg width="24" height="24" viewBox="0 0 24 24" fill="none" xmlns="http://www.w3.org/2000/svg">
<path d="M10.4 14.7L12 13.5L13.55 14.7C13.7333 14.8334 13.925 14.8377 14.125 14.713C14.325 14.5877 14.3833 14.4084 14.3 14.175L13.7 12.2L15.325 10.925C15.5083 10.775 15.5627 10.5834 15.488 10.35C15.4127 10.1167 15.25 10 15 10H13.1L12.45 8.02502C12.3667 7.79169 12.2167 7.67502 12 7.67502C11.7833 7.67502 11.6333 7.79169 11.55 8.02502L10.9 10H9C8.75 10 8.58333 10.1167 8.5 10.35C8.41667 10.5834 8.475 10.775 8.675 10.925L10.25 12.2L9.65 14.175C9.56667 14.4084 9.625 14.5877 9.825 14.713C10.025 14.8377 10.2167 14.8334 10.4 14.7ZM12 21.925H11.75C11.6667 21.925 11.5917 21.9084 11.525 21.875C9.34167 21.1917 7.54167 19.8374 6.125 17.812C4.70833 15.7874 4 13.55 4 11.1V6.37502C4 5.95836 4.121 5.58336 4.363 5.25002C4.60433 4.91669 4.91667 4.67502 5.3 4.52502L11.3 2.27502C11.5333 2.19169 11.7667 2.15002 12 2.15002C12.2333 2.15002 12.4667 2.19169 12.7 2.27502L18.7 4.52502C19.0833 4.67502 19.396 4.91669 19.638 5.25002C19.8793 5.58336 20 5.95836 20 6.37502V11.1C20 13.55 19.2917 15.7874 17.875 17.812C16.4583 19.8374 14.6583 21.1917 12.475 21.875C12.3917 21.9084 12.2333 21.925 12 21.925V21.925ZM12 19.9C13.7333 19.35 15.1667 18.25 16.3 16.6C17.4333 14.95 18 13.1167 18 11.1V6.37502L12 4.12502L6 6.37502V11.1C6 13.1167 6.56667 14.95 7.7 16.6C8.83333 18.25 10.2667 19.35 12 19.9V19.9Z" fill="black"/>
</svg>
