<svg width="80" height="31" viewBox="0 0 80 31" fill="none" xmlns="http://www.w3.org/2000/svg">
<rect x="0.5" y="0.5" width="78.5217" height="30" rx="15" fill="#0A0B33" stroke="#01DBF8"/>
<rect x="43.6304" y="0.5" width="30" height="30" rx="15" fill="#01DBF8" stroke="#01DBF8"/>
<path d="M14.576 15.352C14.576 15.9813 14.5813 16.5253 14.592 16.984C14.6027 17.4427 14.6347 17.816 14.688 18.104C14.7733 18.52 14.864 18.8933 14.96 19.224C15.056 19.5547 15.184 19.8267 15.344 20.04C15.5573 20.3173 15.824 20.5627 16.144 20.776C16.464 20.9787 16.8053 21.1227 17.168 21.208C17.424 21.2613 17.76 21.2933 18.176 21.304C18.592 21.3147 19.088 21.32 19.664 21.32C20.24 21.32 20.736 21.3147 21.152 21.304C21.568 21.2933 21.904 21.2613 22.16 21.208C22.5227 21.1227 22.864 20.9787 23.184 20.776C23.504 20.5627 23.7707 20.3173 23.984 20.04C24.144 19.8267 24.272 19.5547 24.368 19.224C24.464 18.8933 24.5547 18.52 24.64 18.104C24.6933 17.816 24.7253 17.4427 24.736 16.984C24.7467 16.5253 24.752 15.9813 24.752 15.352V15.256C24.752 14.6267 24.7467 14.0827 24.736 13.624C24.7253 13.1653 24.6933 12.792 24.64 12.504C24.5547 12.088 24.464 11.7147 24.368 11.384C24.272 11.0533 24.144 10.7813 23.984 10.568C23.7707 10.2907 23.504 10.0507 23.184 9.848C22.864 9.63467 22.5227 9.48533 22.16 9.4C21.904 9.34667 21.568 9.31467 21.152 9.304C20.736 9.29333 20.24 9.288 19.664 9.288C19.088 9.288 18.592 9.29333 18.176 9.304C17.76 9.31467 17.424 9.34667 17.168 9.4C16.8053 9.48533 16.464 9.63467 16.144 9.848C15.824 10.0507 15.5573 10.2907 15.344 10.568C15.184 10.7813 15.056 11.0533 14.96 11.384C14.864 11.7147 14.7733 12.088 14.688 12.504C14.6347 12.792 14.6027 13.1653 14.592 13.624C14.5813 14.0827 14.576 14.6267 14.576 15.256V15.352ZM19.664 11.496C19.9947 11.496 20.3093 11.5067 20.608 11.528C20.9067 11.5387 21.1627 11.5707 21.376 11.624C21.76 11.72 22.032 11.912 22.192 12.2C22.352 12.4773 22.432 12.8987 22.432 13.464V17.144C22.432 17.7093 22.352 18.136 22.192 18.424C22.032 18.7013 21.76 18.888 21.376 18.984C21.1627 19.0373 20.9067 19.0747 20.608 19.096C20.3093 19.1067 19.9947 19.112 19.664 19.112C19.3333 19.112 19.0187 19.1067 18.72 19.096C18.4213 19.0747 18.1653 19.0373 17.952 18.984C17.568 18.888 17.296 18.7013 17.136 18.424C16.976 18.136 16.896 17.7093 16.896 17.144V13.464C16.896 12.8987 16.976 12.4773 17.136 12.2C17.296 11.912 17.568 11.72 17.952 11.624C18.1653 11.5707 18.4213 11.5387 18.72 11.528C19.0187 11.5067 19.3333 11.496 19.664 11.496ZM27.9361 14.84C27.9361 14.744 27.9841 14.6533 28.0801 14.568C28.1868 14.4827 28.2988 14.44 28.4161 14.44H29.9681C30.1921 14.44 30.4001 14.4613 30.5921 14.504C30.7841 14.536 30.9495 14.6 31.0881 14.696C31.2375 14.792 31.3495 14.9253 31.4241 15.096C31.5095 15.2667 31.5521 15.4853 31.5521 15.752V20.84C31.5521 20.9467 31.6055 21 31.7121 21H33.3281C33.4455 21 33.5041 20.9467 33.5041 20.84V15.416C33.5041 15.064 33.4348 14.7227 33.2961 14.392C33.1575 14.0613 32.9601 13.768 32.7041 13.512C32.4588 13.256 32.1708 13.0533 31.8401 12.904C31.5095 12.744 31.1521 12.664 30.7681 12.664H27.1521C26.8108 12.664 26.5281 12.776 26.3041 13C26.0908 13.2133 25.9841 13.4533 25.9841 13.72V20.36C25.9841 20.5307 26.0161 20.68 26.0801 20.808C26.1548 20.936 26.2668 21 26.4161 21H27.4881C27.7868 21 27.9361 20.8293 27.9361 20.488V14.84Z" fill="#01DBF8"/>
</svg>
