<svg width="172" height="69" viewBox="0 0 172 69" fill="none" xmlns="http://www.w3.org/2000/svg">
<path d="M49.41 46.8808C49.41 45.1836 50.8271 43.8746 52.7535 43.8746C54.6799 43.8746 56.097 45.1836 56.097 46.8808C56.097 48.578 54.6799 49.8759 52.7535 49.8759C50.8271 49.8759 49.41 48.5669 49.41 46.8808Z" fill="#A346F9"/>
<path d="M55.3442 33.3918H60.9019L63.3375 40.9905C63.8136 42.5879 64.3118 44.2518 64.7879 45.9379H64.9428C65.4189 44.2518 65.9171 42.5879 66.3932 40.9905L68.8288 33.3918H74.1318L68.0427 49.4766H61.6658L55.3775 33.3918H55.3442Z" fill="#A346F9"/>
<path d="M75.416 28.5552C75.416 27.091 76.7667 26.0593 78.6156 26.0593C80.4644 26.0593 81.8151 27.091 81.8151 28.5552C81.8151 30.0195 80.4644 31.0511 78.6156 31.0511C76.7667 31.0511 75.416 30.0084 75.416 28.5552ZM75.8478 33.4028H81.3833V49.4876H75.8478V33.4028Z" fill="#A346F9"/>
<path d="M82.9333 33.3918H88.491L90.9266 40.9905C91.4027 42.5879 91.9009 44.2518 92.377 45.9379H92.532C93.008 44.2518 93.5062 42.5879 93.9823 40.9905L96.4179 33.3918H101.721L95.6318 49.4766H89.2549L82.9666 33.3918H82.9333Z" fill="#A346F9"/>
<path d="M102.861 28.5552C102.861 27.091 104.212 26.0593 106.061 26.0593C107.909 26.0593 109.26 27.091 109.26 28.5552C109.26 30.0195 107.909 31.0511 106.061 31.0511C104.212 31.0511 102.861 30.0084 102.861 28.5552ZM103.293 33.4028H108.828V49.4876H103.293V33.4028Z" fill="#A346F9"/>
<path d="M112.36 33.3918H116.877L117.276 35.4329H117.409C118.981 34.135 120.863 33.0035 123.409 33.0035C127.472 33.0035 129.199 35.4773 129.199 39.4929V49.4765H123.664V40.103C123.664 37.7846 122.944 37.0635 121.35 37.0635C119.955 37.0635 119.113 37.6182 117.896 38.6276V49.4876H112.36V33.4029V33.3918Z" fill="#A346F9"/>
<path d="M133.318 43.6306V37.1302H130.771V33.5693L133.628 33.3808L134.27 29.11H138.842V33.3808H143.315V37.1191H138.842V43.564C138.842 45.3833 139.805 46.1154 141.256 46.1154C141.876 46.1154 142.54 45.9601 143.027 45.8048L143.902 49.2658C142.905 49.532 141.566 49.8537 139.75 49.8537C135.133 49.8537 133.307 47.3467 133.307 43.6195L133.318 43.6306Z" fill="#A346F9"/>
<path d="M40.4758 29.8309L34.6302 25.3605L28.7847 29.8309L22.9392 34.3014V49.8758H46.3102V34.3014L40.4647 29.8309H40.4758ZM41.6493 45.8491H27.6112V36.5865L31.1207 33.9353L34.6302 31.2841L38.1398 33.9353L41.6493 36.5865V45.8491Z" fill="#A346F9"/>
</svg>
