<svg width="22" height="76" viewBox="0 0 22 76" fill="none" xmlns="http://www.w3.org/2000/svg">
<path d="M8.75 8.15625C8.75 8.38003 8.83889 8.59464 8.99713 8.75287C9.15536 8.91111 9.36997 9 9.59375 9H11V10.4063C11 10.63 11.0889 10.8446 11.2471 11.0029C11.4054 11.1611 11.62 11.25 11.8437 11.25C12.0675 11.25 12.2821 11.1611 12.4404 11.0029C12.5986 10.8446 12.6875 10.63 12.6875 10.4063V9H14.0937C14.3175 9 14.5321 8.91111 14.6904 8.75287C14.8486 8.59464 14.9375 8.38003 14.9375 8.15625C14.9375 7.93248 14.8486 7.71787 14.6904 7.55963C14.5321 7.4014 14.3175 7.3125 14.0937 7.3125H12.6875V5.90625C12.6875 5.68248 12.5986 5.46787 12.4404 5.30963C12.2821 5.1514 12.0675 5.0625 11.8437 5.0625C11.62 5.0625 11.4054 5.1514 11.2471 5.30963C11.0889 5.46787 11 5.68248 11 5.90625V7.3125H9.59375C9.36997 7.3125 9.15536 7.4014 8.99713 7.55963C8.83889 7.71787 8.75 7.93248 8.75 8.15625ZM3.65234 16.3477C3.81156 16.5048 4.02628 16.5929 4.25 16.5929C4.47372 16.5929 4.68843 16.5048 4.84765 16.3477L7.70937 13.4859C8.88892 14.4102 10.3452 14.9105 11.8437 14.9063C13.1788 14.9063 14.4838 14.5104 15.5938 13.7687C16.7039 13.027 17.569 11.9728 18.0799 10.7394C18.5908 9.50597 18.7245 8.14877 18.464 6.83939C18.2036 5.53002 17.5607 4.32729 16.6167 3.38328C15.6727 2.43928 14.47 1.7964 13.1606 1.53595C11.8512 1.2755 10.494 1.40917 9.26063 1.92007C8.02723 2.43096 6.97303 3.29612 6.23133 4.40615C5.48963 5.51619 5.09375 6.82123 5.09375 8.15625C5.08951 9.65477 5.58981 11.1111 6.51406 12.2906L3.65234 15.1523C3.57368 15.2307 3.51127 15.3239 3.46868 15.4264C3.4261 15.529 3.40418 15.639 3.40418 15.75C3.40418 15.8611 3.4261 15.971 3.46868 16.0736C3.51127 16.1761 3.57368 16.2693 3.65234 16.3477V16.3477ZM11.8437 13.2188C10.8425 13.2188 9.8637 12.9218 9.03117 12.3656C8.19865 11.8093 7.54977 11.0186 7.16661 10.0936C6.78344 9.16854 6.68318 8.15064 6.87852 7.16861C7.07386 6.18658 7.55602 5.28453 8.26402 4.57652C8.97202 3.86852 9.87407 3.38637 10.8561 3.19103C11.8381 2.99569 12.856 3.09594 13.7811 3.47911C14.7061 3.86228 15.4968 4.51115 16.0531 5.34368C16.6093 6.1762 16.9062 7.15499 16.9062 8.15625C16.9044 9.49834 16.3704 10.7849 15.4214 11.7339C14.4724 12.6829 13.1858 13.2169 11.8437 13.2188V13.2188Z" fill="#01DBF8"/>
<path d="M9.74939 65.25C9.55048 65.25 9.35971 65.329 9.21906 65.4697C9.07841 65.6103 8.99939 65.8011 8.99939 66C8.99939 66.1989 9.07841 66.3897 9.21906 66.5303C9.35971 66.671 9.55048 66.75 9.74939 66.75H14.2494C14.4483 66.75 14.6391 66.671 14.7797 66.5303C14.9204 66.3897 14.9994 66.1989 14.9994 66C14.9994 65.8011 14.9204 65.6103 14.7797 65.4697C14.6391 65.329 14.4483 65.25 14.2494 65.25H9.74939Z" fill="#01DBF8"/>
<path fill-rule="evenodd" clip-rule="evenodd" d="M11.9994 59C10.8801 59.0001 9.77709 59.2686 8.78297 59.783C7.78885 60.2974 6.93259 61.0428 6.28601 61.9565C5.63943 62.8701 5.22138 63.9256 5.06695 65.0342C4.91251 66.1428 5.02619 67.2723 5.39843 68.3279C5.77068 69.3836 6.39065 70.3345 7.20633 71.101C8.02201 71.8676 9.00961 72.4273 10.0863 72.7333C11.163 73.0393 12.2974 73.0827 13.3943 72.8597C14.4912 72.6368 15.5186 72.154 16.3904 71.452L19.7194 74.78C19.7881 74.8537 19.8709 74.9128 19.9629 74.9538C20.0549 74.9948 20.1542 75.0168 20.2549 75.0186C20.3556 75.0204 20.4556 75.0018 20.549 74.9641C20.6424 74.9264 20.7272 74.8703 20.7984 74.799C20.8697 74.7278 20.9258 74.643 20.9635 74.5496C21.0013 74.4562 21.0198 74.3562 21.018 74.2555C21.0162 74.1548 20.9942 74.0555 20.9532 73.9635C20.9122 73.8715 20.8531 73.7887 20.7794 73.72L17.4514 70.391C18.2798 69.3625 18.8004 68.1207 18.953 66.809C19.1056 65.4973 18.8841 64.1691 18.3139 62.9779C17.7438 61.7868 16.8484 60.7812 15.731 60.0773C14.6137 59.3734 13.32 58.9999 11.9994 59V59ZM6.49941 66C6.49941 64.5413 7.07887 63.1424 8.11032 62.1109C9.14177 61.0795 10.5407 60.5 11.9994 60.5C13.4581 60.5 14.857 61.0795 15.8885 62.1109C16.9199 63.1424 17.4994 64.5413 17.4994 66C17.4994 67.4587 16.9199 68.8576 15.8885 69.8891C14.857 70.9205 13.4581 71.5 11.9994 71.5C10.5407 71.5 9.14177 70.9205 8.11032 69.8891C7.07887 68.8576 6.49941 67.4587 6.49941 66Z" fill="#01DBF8"/>
<path fill-rule="evenodd" clip-rule="evenodd" d="M3 45.75C3 45.5511 3.07902 45.3603 3.21967 45.2197C3.36032 45.079 3.55109 45 3.75 45H18.25C18.4489 45 18.6397 45.079 18.7803 45.2197C18.921 45.3603 19 45.5511 19 45.75C19 45.9489 18.921 46.1397 18.7803 46.2803C18.6397 46.421 18.4489 46.5 18.25 46.5H3.75C3.55109 46.5 3.36032 46.421 3.21967 46.2803C3.07902 46.1397 3 45.9489 3 45.75ZM3 52.25C3 52.0511 3.07902 51.8603 3.21967 51.7197C3.36032 51.579 3.55109 51.5 3.75 51.5H18.25C18.4489 51.5 18.6397 51.579 18.7803 51.7197C18.921 51.8603 19 52.0511 19 52.25C19 52.4489 18.921 52.6397 18.7803 52.7803C18.6397 52.921 18.4489 53 18.25 53H3.75C3.55109 53 3.36032 52.921 3.21967 52.7803C3.07902 52.6397 3 52.4489 3 52.25V52.25Z" fill="#01DBF8"/>
<path fill-rule="evenodd" clip-rule="evenodd" d="M0 38.75C0 38.5511 0.0790175 38.3603 0.21967 38.2197C0.360322 38.079 0.551088 38 0.75 38H21.2159C21.4148 38 21.6056 38.079 21.7462 38.2197C21.8869 38.3603 21.9659 38.5511 21.9659 38.75C21.9659 38.9489 21.8869 39.1397 21.7462 39.2803C21.6056 39.421 21.4148 39.5 21.2159 39.5H0.75C0.551088 39.5 0.360322 39.421 0.21967 39.2803C0.0790175 39.1397 0 38.9489 0 38.75Z" fill="#FA42FD"/>
<path fill-rule="evenodd" clip-rule="evenodd" d="M3 24.75C3 24.5511 3.07902 24.3603 3.21967 24.2197C3.36032 24.079 3.55109 24 3.75 24H18.25C18.4489 24 18.6397 24.079 18.7803 24.2197C18.921 24.3603 19 24.5511 19 24.75C19 24.9489 18.921 25.1397 18.7803 25.2803C18.6397 25.421 18.4489 25.5 18.25 25.5H3.75C3.55109 25.5 3.36032 25.421 3.21967 25.2803C3.07902 25.1397 3 24.9489 3 24.75ZM3 31.25C3 31.0511 3.07902 30.8603 3.21967 30.7197C3.36032 30.579 3.55109 30.5 3.75 30.5H18.25C18.4489 30.5 18.6397 30.579 18.7803 30.7197C18.921 30.8603 19 31.0511 19 31.25C19 31.4489 18.921 31.6397 18.7803 31.7803C18.6397 31.921 18.4489 32 18.25 32H3.75C3.55109 32 3.36032 31.921 3.21967 31.7803C3.07902 31.6397 3 31.4489 3 31.25V31.25Z" fill="#01DBF8"/>
</svg>
